<?xml version="1.0" standalone="no"?>
<!DOCTYPE svg PUBLIC "-//W3C//DTD SVG 20010904//EN"
 "http://www.w3.org/TR/2001/REC-SVG-20010904/DTD/svg10.dtd">
<svg version="1.0" xmlns="http://www.w3.org/2000/svg"
 width="512.000000pt" height="512.000000pt" viewBox="0 0 512.000000 512.000000"
 preserveAspectRatio="xMidYMid meet">

<g transform="translate(0.000000,512.000000) scale(0.100000,-0.100000)"
fill="#000000" stroke="none">
<path d="M580 2561 l0 -2561 1078 0 c1240 0 1366 6 1674 76 567 129 947 423
1107 858 68 183 94 341 94 581 1 149 -3 184 -25 281 -100 425 -359 703 -760
814 -39 11 -72 21 -74 23 -2 2 39 25 91 51 381 189 595 559 595 1028 0 295
-84 576 -229 768 -225 299 -621 503 -1141 589 -259 43 -284 44 -1362 48
l-1048 4 0 -2560z m1865 1639 c185 -10 309 -37 420 -89 214 -100 316 -291 301
-566 -8 -155 -52 -263 -145 -355 -98 -97 -263 -165 -456 -189 -50 -6 -247 -11
-442 -11 l-353 0 0 603 c0 332 3 607 7 610 9 10 492 8 668 -3z m360 -2011
c175 -21 313 -83 399 -179 55 -61 111 -187 131 -295 23 -122 16 -322 -14 -417
-46 -145 -157 -258 -310 -317 -154 -59 -213 -64 -751 -65 l-485 -1 -3 630 c-1
347 0 636 3 643 6 16 896 17 1030 1z"/>
</g>
</svg>
