<svg id="Capa_1" enable-background="new 0 0 512 512" height="512" viewBox="0 0 512 512" width="512" xmlns="http://www.w3.org/2000/svg"><g><path d="m467 211h-16v-135c0-24.813-20.187-45-45-45h-361c-24.813 0-45 20.187-45 45v240c0 24.813 20.187 45 45 45h15v75c0 6.067 3.655 11.537 9.26 13.858 5.606 2.321 12.057 1.038 16.347-3.252l85.606-85.606h69.787v15c0 24.813 20.187 45 45 45h83.787l55.606 55.606c4.297 4.298 10.752 5.569 16.347 3.252 5.605-2.322 9.26-7.792 9.26-13.858v-45h16c24.813 0 45-20.187 45-45v-120c0-24.813-20.187-45-45-45zm-302 120c-3.979 0-7.793 1.58-10.606 4.393l-64.394 64.393v-53.786c0-8.284-6.716-15-15-15h-30c-8.271 0-15-6.729-15-15v-240c0-8.271 6.729-15 15-15h361c8.271 0 15 6.729 15 15v135h-135c-24.813 0-45 20.187-45 45v75zm317 45c0 8.271-6.729 15-15 15h-31c-8.284 0-15 6.716-15 15v23.787l-34.394-34.393c-2.812-2.814-6.627-4.394-10.606-4.394h-90c-8.271 0-15-6.729-15-15v-120c0-8.271 6.729-15 15-15h181c8.271 0 15 6.729 15 15z"/><path d="m395.394 290.393-34.394 34.394-11.894-11.894c-5.857-5.858-15.355-5.858-21.213 0s-5.858 15.355 0 21.213l22.5 22.5c2.929 2.929 6.768 4.394 10.607 4.394s7.678-1.464 10.606-4.394l45-45c5.858-5.858 5.858-15.355 0-21.213-5.857-5.858-15.355-5.858-21.212 0z"/><path d="m196 241h-91c-8.284 0-15 6.716-15 15s6.716 15 15 15h91c8.284 0 15-6.716 15-15s-6.716-15-15-15z"/><path d="m226 181h-121c-8.284 0-15 6.716-15 15s6.716 15 15 15h121c8.284 0 15-6.716 15-15s-6.716-15-15-15z"/><path d="m105 151h241c8.284 0 15-6.716 15-15s-6.716-15-15-15h-241c-8.284 0-15 6.716-15 15s6.716 15 15 15z"/></g></svg>