<?xml version="1.0" standalone="no"?>
<!DOCTYPE svg PUBLIC "-//W3C//DTD SVG 20010904//EN"
 "http://www.w3.org/TR/2001/REC-SVG-20010904/DTD/svg10.dtd">
<svg version="1.0" xmlns="http://www.w3.org/2000/svg"
 width="512.000000pt" height="512.000000pt" viewBox="0 0 512.000000 512.000000"
 preserveAspectRatio="xMidYMid meet">

<g transform="translate(0.000000,512.000000) scale(0.100000,-0.100000)"
fill="#000000" stroke="none">
<path d="M980 5109 c-160 -31 -299 -173 -330 -339 -6 -33 -10 -434 -10 -1087
0 -878 2 -1038 14 -1061 8 -15 115 -127 238 -250 225 -224 250 -243 308 -234
17 3 122 100 320 298 l295 294 390 -391 c215 -215 403 -397 419 -406 65 -34
76 -26 401 297 l300 298 289 -193 c158 -106 300 -195 314 -198 14 -3 37 -1 51
4 31 12 466 442 487 481 22 41 21 1325 -1 1372 -20 42 -1082 1102 -1118 1115
-35 14 -2300 13 -2367 0z m2220 -533 c0 -183 5 -358 10 -387 32 -169 170 -307
340 -339 29 -5 203 -10 386 -10 l334 0 0 -563 0 -562 -169 -169 -168 -168
-288 192 c-314 210 -336 220 -397 182 -18 -12 -157 -145 -308 -296 l-275 -276
-400 399 c-264 263 -408 400 -425 403 -59 10 -81 -8 -375 -302 l-290 -290
-162 162 -163 163 0 987 c0 690 3 1003 11 1039 15 69 85 143 150 157 27 6 458
10 1117 11 l1072 1 0 -334z m673 -524 c-296 -3 -328 3 -393 67 -64 64 -70 96
-70 394 l0 242 350 -350 350 -350 -237 -3z"/>
<path d="M1785 2338 c-21 -5 -119 -97 -320 -298 l-289 -290 -192 190 c-188
187 -192 190 -234 190 -34 0 -48 -6 -76 -34 l-34 -34 0 -830 c0 -515 4 -849
10 -882 32 -170 170 -308 339 -340 74 -14 3068 -14 3142 0 169 32 307 170 339
340 6 33 10 367 10 882 l0 830 -34 34 c-28 28 -42 34 -76 34 -42 0 -46 -3
-240 -196 l-198 -196 -287 192 c-314 210 -336 220 -397 182 -18 -12 -157 -145
-308 -296 l-275 -276 -400 399 c-264 263 -408 400 -425 403 -14 2 -39 1 -55
-4z m844 -1048 c14 -7 38 -9 60 -5 31 6 81 52 336 305 l300 298 289 -193 c158
-106 300 -195 315 -198 45 -9 82 17 206 142 66 67 123 121 127 121 13 0 10
-1321 -3 -1381 -16 -74 -84 -142 -158 -158 -74 -16 -3008 -16 -3082 0 -74 16
-142 84 -158 158 -13 60 -16 1381 -3 1381 4 0 63 -56 132 -125 126 -126 156
-146 210 -137 16 3 128 107 320 298 l295 294 395 -394 c217 -217 406 -399 419
-406z"/>
</g>
</svg>
