<?xml version="1.0" standalone="no"?>
<!DOCTYPE svg PUBLIC "-//W3C//DTD SVG 20010904//EN"
 "http://www.w3.org/TR/2001/REC-SVG-20010904/DTD/svg10.dtd">
<svg version="1.0" xmlns="http://www.w3.org/2000/svg"
 width="512.000000pt" height="512.000000pt" viewBox="0 0 512.000000 512.000000"
 preserveAspectRatio="xMidYMid meet">

<g transform="translate(0.000000,512.000000) scale(0.100000,-0.100000)"
fill="#000000" stroke="none">
<path d="M430 2560 l0 -1710 210 0 210 0 2 748 3 747 745 0 745 0 3 -747 2
-748 210 0 210 0 0 1710 0 1710 -210 0 -210 0 -2 -747 -3 -748 -745 0 -745 0
-3 748 -2 747 -210 0 -210 0 0 -1710z"/>
<path d="M3200 3200 l0 -210 461 0 c276 0 459 -4 457 -9 -1 -5 -130 -155 -284
-333 -155 -178 -293 -337 -308 -355 l-26 -31 135 -161 c75 -89 139 -161 143
-161 4 0 29 7 56 15 105 32 233 13 323 -48 95 -66 163 -193 163 -307 0 -69
-34 -167 -77 -224 -179 -233 -544 -179 -644 96 -17 44 -26 57 -38 54 -9 -3
-103 -22 -208 -42 l-193 -36 6 -27 c55 -232 217 -434 429 -536 115 -56 185
-74 310 -81 218 -12 424 62 581 209 114 106 184 220 230 374 22 75 26 107 26
213 0 105 -4 139 -26 213 -75 253 -244 439 -485 533 -63 24 -69 29 -57 43 8 9
127 146 265 305 l251 289 0 214 0 213 -745 0 -745 0 0 -210z"/>
</g>
</svg>
