<?xml version="1.0" standalone="no"?>
<!DOCTYPE svg PUBLIC "-//W3C//DTD SVG 20010904//EN"
 "http://www.w3.org/TR/2001/REC-SVG-20010904/DTD/svg10.dtd">
<svg version="1.0" xmlns="http://www.w3.org/2000/svg"
 width="512.000000pt" height="512.000000pt" viewBox="0 0 512.000000 512.000000"
 preserveAspectRatio="xMidYMid meet">

<g transform="translate(0.000000,512.000000) scale(0.100000,-0.100000)"
fill="#000000" stroke="none">
<path d="M1710 4695 l0 -425 378 0 379 0 -264 -1322 c-145 -728 -297 -1497
-339 -1710 l-77 -388 -408 0 -409 0 0 -425 0 -425 1220 0 1220 0 0 425 0 425
-378 0 -379 0 244 1222 c134 673 286 1442 339 1711 l97 487 408 0 409 0 0 425
0 425 -1220 0 -1220 0 0 -425z"/>
</g>
</svg>
