<?xml version="1.0" standalone="no"?>
<!DOCTYPE svg PUBLIC "-//W3C//DTD SVG 20010904//EN"
 "http://www.w3.org/TR/2001/REC-SVG-20010904/DTD/svg10.dtd">
<svg version="1.0" xmlns="http://www.w3.org/2000/svg"
 width="512.000000pt" height="512.000000pt" viewBox="0 0 512.000000 512.000000"
 preserveAspectRatio="xMidYMid meet">

<g transform="translate(0.000000,512.000000) scale(0.100000,-0.100000)"
fill="#000000" stroke="none">
<path d="M675 4271 c-44 -19 -70 -60 -70 -112 0 -42 5 -53 33 -81 l32 -33
1890 0 1890 0 32 33 c28 28 33 39 33 82 0 43 -5 54 -33 82 l-32 33 -1878 2
c-1032 1 -1886 -2 -1897 -6z"/>
<path d="M675 3471 c-44 -19 -70 -60 -70 -112 0 -42 5 -53 33 -81 l32 -33
1890 0 1890 0 32 33 c28 28 33 39 33 82 0 43 -5 54 -33 82 l-32 33 -1878 2
c-1032 1 -1886 -2 -1897 -6z"/>
<path d="M675 2671 c-44 -19 -70 -60 -70 -112 0 -42 5 -53 33 -81 l32 -33
1890 0 1890 0 32 33 c28 28 33 39 33 82 0 43 -5 54 -33 82 l-32 33 -1878 2
c-1032 1 -1886 -2 -1897 -6z"/>
<path d="M675 1871 c-44 -19 -70 -60 -70 -112 0 -42 5 -53 33 -81 l32 -33
1890 0 1890 0 32 33 c28 28 33 39 33 82 0 43 -5 54 -33 82 l-32 33 -1878 2
c-1032 1 -1886 -2 -1897 -6z"/>
<path d="M675 1071 c-44 -19 -70 -60 -70 -112 0 -42 5 -53 33 -81 l32 -33
1890 0 1890 0 32 33 c28 28 33 39 33 82 0 43 -5 54 -33 82 l-32 33 -1878 2
c-1032 1 -1886 -2 -1897 -6z"/>
</g>
</svg>
