<svg height="512pt" viewBox="0 -3 512 512" width="512pt" xmlns="http://www.w3.org/2000/svg"><path d="m474.347656 156.679688h-.324218c-.050782-20.554688-11.601563-23.832032-29.070313-28.785157l-.351563-.101562c-5.570312-1.59375-11.175781-2.933594-16.976562-4.074219.078125-1.417969.121094-2.871094.121094-4.363281-.027344-19.820313-6.765625-36.910157-19.480469-49.421875-13.269531-13.058594-32.539063-20.355469-53.003906-20.105469-20.398438-.300781-39.707031 7.042969-52.972657 20.097656-12.71875 12.515625-19.457031 29.609375-19.484374 49.429688 0 2.464843.113281 4.820312.324218 7.085937-11.019531 2.5-20.113281 5.5-27.144531 8.957032-17.8125-8.753907-48.503906-14.53125-89.285156-16.75-4.148438-.214844-7.730469 2.964843-7.957031 7.132812-.226563 4.167969 2.96875 7.730469 7.136718 7.957031 48.472656 2.640625 71.796875 9.746094 82.550782 14.796875v279.824219c-20.222657-7.757813-51.757813-13.183594-85.0625-14.335937-25.121094-.875-70.988282.105468-110.277344 14.84375v-272.050782c0-6.808594 1.449218-7.953125 2.316406-8.640625 2.507812-1.984375 8.054688-3.558593 15.730469-5.738281l.378906-.109375c16.640625-4.722656 33.445313-7.195313 58.003906-8.53125 4.167969-.226563 7.359375-3.789063 7.132813-7.957031-.226563-4.167969-3.8125-7.378906-7.957032-7.136719-25.753906 1.402344-43.515624 4.035156-61.308593 9.085937l-.378907.109376c-17.445312 4.953124-28.980468 8.234374-29.03125 28.78125h-.351562c-20.746094 0-37.625 16.886718-37.625 37.640624v263.050782c0 24.015625 17.28125 48.34375 50.3125 48.375l205.664062.257812h.007813.007813l82.785156-.085937c4.171875-.003907 7.550781-3.390625 7.546875-7.566407-.003907-4.171874-3.386719-7.546874-7.554688-7.546874-.003906 0-.007812 0-.007812 0l-75.21875.074218v-23.035156h187.335937c12.761719 0 23.144532-10.558594 23.144532-23.535156v-272.515625h.320312c12.429688 0 22.542969 10.105469 22.542969 22.527343v263.050782c0 16-11.023438 33.238281-35.21875 33.261718l-87.882813.113282c-4.175781.003906-7.554687 3.394531-7.546875 7.566406.003907 4.171875 3.386719 7.546875 7.558594 7.546875h.007813l87.878906-.113281c33.035156-.03125 50.316406-24.359375 50.316406-48.375v-263.050782c0-20.753906-16.890625-37.640624-37.652344-37.640624zm-161.460937-75.976563c10.429687-10.261719 25.859375-16.035156 42.261719-15.761719h.226562c16.410156-.28125 31.859375 5.503906 42.289062 15.765625 9.769532 9.613281 14.945313 22.984375 14.96875 38.667969.023438 19.644531-8.582031 30.011719-18.542968 42.015625-8.6875 10.464844-18.398438 22.167969-20.535156 40.472656h-10.738282v-52.363281h11.859375c4.171875 0 7.554688-3.382812 7.554688-7.554688 0-4.175781-3.382813-7.558593-7.554688-7.558593h-39.59375c-4.175781 0-7.558593 3.382812-7.558593 7.558593 0 4.171876 3.382812 7.554688 7.558593 7.554688h12.621094v52.363281h-10.707031c-2.136719-18.304687-11.847656-30.007812-20.535156-40.472656-9.964844-12.003906-18.566407-22.371094-18.542969-42.015625.023437-15.6875 5.199219-29.058594 14.96875-38.671875zm18.796875 136.273437h47.183594c6.070312 0 11.007812 4.933594 11.007812 10.996094 0 6.046875-4.9375 10.96875-11.007812 10.96875h-47.183594c-6.070313 0-11.007813-4.921875-11.007813-10.96875 0-6.0625 4.9375-10.996094 11.007813-10.996094zm-26.851563-45.933593c8.300781 10 15.585938 18.800781 17.15625 32.691406-9.613281 3.855469-16.425781 13.265625-16.425781 24.238281 0 14.382813 11.71875 26.082032 26.121094 26.082032h47.183594c14.402343 0 26.121093-11.699219 26.121093-26.082032 0-10.972656-6.8125-20.382812-16.425781-24.238281 1.570312-13.890625 8.855469-22.695313 17.15625-32.695313 7.34375-8.84375 15.378906-18.535156 19.410156-32.402343 5.226563 1.039062 10.296875 2.25 15.328125 3.691406l.371094.105469c7.691406 2.179687 13.246094 3.757812 15.765625 5.746094.867188.683593 2.316406 1.828124 2.316406 8.636718v272.050782c-39.304687-14.738282-85.167968-15.714844-110.296875-14.84375-33.300781 1.152343-64.84375 6.582031-85.070312 14.335937v-279.820313c4.730469-2.226562 11.925781-4.84375 22.695312-7.308593 4.234375 12.5 11.714844 21.527343 18.59375 29.8125zm-56.402343 273.714843v7.972657h-187.339844c-4.15625 0-7.578125-3.355469-7.960938-7.625 62.542969-26.152344 161.726563-16.207031 195.300782-.347657zm-233.316407 12.613282v-263.050782c0-12.421874 10.101563-22.527343 22.511719-22.527343h.351562v272.519531c0 12.976562 10.371094 23.53125 23.117188 23.53125h187.335938v23.035156l-198.101563-.246094c-24.191406-.023437-35.214844-17.261718-35.214844-33.261718zm435.765625-4.640625h-187.335937v-7.96875c33.585937-15.855469 132.789062-25.796875 195.328125.34375-.398438 4.207031-3.894532 7.625-7.992188 7.625zm0 0"/><path d="m219.226562 303.898438c-11.867187-6.886719-35.398437-11.726563-61.417968-12.628907-17.347656-.597656-50.382813.199219-76.691406 12.300781-3.792969 1.742188-5.453126 6.230469-3.710938 10.023438 1.273438 2.769531 4.011719 4.398438 6.871094 4.398438 1.058594 0 2.128906-.222657 3.152344-.691407 39.523437-18.175781 106-10.898437 124.207031-.332031 3.609375 2.097656 8.234375.871094 10.332031-2.742188 2.09375-3.605468.867188-8.230468-2.742188-10.328124zm0 0"/><path d="m219.226562 359.363281c-11.867187-6.886719-35.398437-11.726562-61.417968-12.628906-17.347656-.601563-50.382813.199219-76.691406 12.300781-3.792969 1.742188-5.453126 6.230469-3.710938 10.023438 1.273438 2.769531 4.011719 4.398437 6.871094 4.398437 1.058594 0 2.128906-.222656 3.152344-.691406 39.523437-18.175781 106-10.898437 124.207031-.332031 3.609375 2.09375 8.234375.871094 10.332031-2.742188 2.09375-3.605468.867188-8.230468-2.742188-10.328125zm0 0"/><path d="m219.226562 248.433594c-11.871093-6.890625-35.40625-11.734375-61.417968-12.636719-17.355469-.605469-50.394532.191406-76.695313 12.308594-3.792969 1.746093-5.449219 6.234375-3.703125 10.027343 1.273438 2.765626 4.011719 4.394532 6.867188 4.394532 1.058594 0 2.132812-.222656 3.160156-.691406 39.496094-18.195313 105.980469-10.910157 124.199219-.332032 3.609375 2.09375 8.234375.867188 10.332031-2.742187 2.09375-3.609375.867188-8.234375-2.742188-10.328125zm0 0"/><path d="m300.367188 316.96875c18.191406-10.578125 84.648437-17.859375 124.171874.332031 1.023438.472657 2.097657.691407 3.15625.691407 2.859376 0 5.59375-1.628907 6.871094-4.398438 1.742188-3.789062.082032-8.277344-3.707031-10.023438-26.292969-12.101562-59.332031-12.902343-76.679687-12.296874-26.027344.898437-49.558594 5.738281-61.40625 12.628906-3.609376 2.097656-4.835938 6.722656-2.738282 10.332031s6.722656 4.832031 10.332032 2.734375zm0 0"/><path d="m430.855469 359.035156c-26.292969-12.101562-59.332031-12.902344-76.679688-12.300781-26.027343.902344-49.554687 5.742187-61.40625 12.632813-3.609375 2.097656-4.832031 6.722656-2.734375 10.332031s6.722656 4.832031 10.332032 2.734375c18.191406-10.578125 84.644531-17.859375 124.171874.332031 1.023438.472656 2.097657.695313 3.152344.695313 2.863282 0 5.597656-1.632813 6.871094-4.402344 1.746094-3.789063.085938-8.277344-3.707031-10.023438zm0 0"/><path d="m355.316406 34.941406c4.175782 0 7.558594-3.382812 7.558594-7.554687v-19.828125c0-4.175782-3.382812-7.558594-7.558594-7.558594-4.171875 0-7.554687 3.382812-7.554687 7.558594v19.828125c0 4.171875 3.382812 7.554687 7.554687 7.554687zm0 0"/><path d="m285.671875 50.410156c1.476563 1.472656 3.410156 2.210938 5.34375 2.210938s3.867187-.738282 5.34375-2.214844c2.953125-2.953125 2.949219-7.738281-.003906-10.6875l-14.054688-14.050781c-2.953125-2.949219-7.738281-2.949219-10.6875.003906-2.953125 2.949219-2.953125 7.734375 0 10.6875zm0 0"/><path d="m419.621094 52.621094c1.9375 0 3.871094-.738282 5.347656-2.21875l14.027344-14.050782c2.949218-2.953124 2.945312-7.738281-.007813-10.6875-2.953125-2.945312-7.738281-2.945312-10.6875.011719l-14.027343 14.046875c-2.949219 2.953125-2.945313 7.738282.007812 10.6875 1.476562 1.472656 3.410156 2.210938 5.339844 2.210938zm0 0"/><path d="m77.40625 202.632812c1.273438 2.769532 4.011719 4.402344 6.871094 4.402344 1.058594 0 2.128906-.222656 3.152344-.691406 39.484374-18.160156 105.980468-10.886719 124.214843-.328125 3.609375 2.09375 8.234375.859375 10.328125-2.75 2.089844-3.613281.859375-8.238281-2.753906-10.328125-11.871094-6.875-35.402344-11.710938-61.410156-12.613281-17.351563-.601563-50.390625.191406-76.691406 12.285156-3.792969 1.746094-5.453126 6.234375-3.710938 10.023437zm0 0"/></svg>