<?xml version="1.0" standalone="no"?>
<!DOCTYPE svg PUBLIC "-//W3C//DTD SVG 20010904//EN"
 "http://www.w3.org/TR/2001/REC-SVG-20010904/DTD/svg10.dtd">
<svg version="1.0" xmlns="http://www.w3.org/2000/svg"
 width="512.000000pt" height="512.000000pt" viewBox="0 0 512.000000 512.000000"
 preserveAspectRatio="xMidYMid meet">

<g transform="translate(0.000000,512.000000) scale(0.100000,-0.100000)"
fill="#000000" stroke="none">
<path d="M188 5100 c-43 -23 -78 -82 -78 -130 0 -87 75 -150 179 -150 l61 0 0
-499 0 -498 23 -34 c63 -94 193 -88 252 12 19 33 20 52 20 619 0 567 -1 586
-20 619 -41 70 -58 76 -238 78 -146 3 -166 1 -199 -17z"/>
<path d="M1478 4499 c-43 -22 -78 -81 -78 -129 0 -48 33 -103 78 -128 l40 -22
1741 0 c1726 0 1742 0 1781 20 45 23 80 80 80 130 0 50 -35 107 -80 130 -39
20 -55 20 -1782 20 -1716 -1 -1744 -1 -1780 -21z"/>
<path d="M310 3244 c-117 -32 -212 -110 -267 -220 -44 -91 -52 -154 -25 -204
39 -72 118 -98 196 -66 38 16 65 51 90 118 9 25 28 54 42 62 85 56 197 3 197
-93 0 -68 -91 -213 -340 -543 -147 -196 -163 -223 -163 -278 0 -56 29 -104 80
-134 33 -20 53 -21 340 -24 303 -3 305 -3 349 20 101 54 109 193 14 255 -22
15 -55 19 -185 23 l-158 5 83 115 c193 267 249 365 273 483 62 296 -227 561
-526 481z"/>
<path d="M1478 2689 c-43 -22 -78 -81 -78 -129 0 -48 33 -103 78 -128 l40 -22
1741 0 c1726 0 1742 0 1781 20 45 23 80 80 80 130 0 50 -35 107 -80 130 -39
20 -55 20 -1782 20 -1716 -1 -1744 -1 -1780 -21z"/>
<path d="M346 1390 c-66 -17 -153 -70 -206 -126 -94 -100 -135 -241 -91 -312
55 -86 167 -96 238 -20 12 12 30 45 40 73 33 87 114 119 184 72 56 -37 74
-101 46 -157 -17 -34 -74 -70 -111 -70 -79 0 -146 -69 -146 -150 0 -81 67
-150 146 -150 37 0 94 -36 111 -70 16 -32 16 -78 0 -110 -17 -34 -74 -70 -111
-70 -66 0 -126 65 -126 137 0 102 -142 170 -231 110 -66 -44 -82 -112 -54
-222 53 -203 241 -339 444 -322 272 23 452 289 371 549 -11 36 -33 83 -50 106
l-30 42 30 42 c17 23 39 70 50 106 67 217 -44 441 -260 526 -53 21 -188 30
-244 16z"/>
<path d="M1478 879 c-43 -22 -78 -81 -78 -129 0 -48 33 -103 78 -128 l40 -22
1741 0 c1726 0 1742 0 1781 20 45 23 80 80 80 130 0 50 -35 107 -80 130 -39
20 -55 20 -1782 20 -1716 -1 -1744 -1 -1780 -21z"/>
</g>
</svg>
