<?xml version="1.0" standalone="no"?>
<!DOCTYPE svg PUBLIC "-//W3C//DTD SVG 20010904//EN"
 "http://www.w3.org/TR/2001/REC-SVG-20010904/DTD/svg10.dtd">
<svg version="1.0" xmlns="http://www.w3.org/2000/svg"
 width="512.000000pt" height="512.000000pt" viewBox="0 0 512.000000 512.000000"
 preserveAspectRatio="xMidYMid meet">

<g transform="translate(0.000000,512.000000) scale(0.100000,-0.100000)"
fill="#000000" stroke="none">
<path d="M2380 5114 c-19 -2 -78 -9 -130 -14 -330 -36 -695 -160 -990 -336
-375 -224 -680 -529 -904 -904 -175 -292 -291 -632 -338 -990 -16 -123 -16
-497 0 -620 82 -623 356 -1150 820 -1581 376 -351 873 -579 1412 -651 157 -21
519 -16 680 10 271 42 538 126 760 237 58 29 115 64 126 76 87 96 19 250 -110
251 -33 1 -73 -13 -172 -60 -302 -143 -571 -209 -894 -219 -635 -21 -1225 211
-1670 657 -625 624 -826 1548 -519 2375 327 879 1171 1465 2109 1465 847 0
1621 -475 2004 -1230 250 -493 310 -1033 176 -1594 -42 -177 -90 -268 -183
-351 -149 -135 -311 -160 -479 -74 -65 33 -145 120 -181 196 l-32 68 -5 885
c-5 815 -6 887 -22 917 -58 104 -208 107 -266 4 -18 -32 -22 -54 -22 -137 l0
-98 -74 76 c-184 187 -434 317 -698 364 -119 20 -325 20 -443 -1 -531 -94
-956 -519 -1050 -1050 -21 -117 -21 -333 0 -450 94 -531 519 -956 1050 -1050
121 -22 334 -21 450 0 286 54 541 195 734 407 46 50 61 58 61 32 0 -27 69
-166 111 -223 133 -180 369 -301 587 -301 182 0 382 98 538 263 145 152 218
342 275 717 26 173 32 532 11 690 -48 360 -163 698 -338 990 -224 375 -529
680 -904 904 -289 173 -634 291 -980 336 -88 12 -438 21 -500 14z m387 -1590
c376 -77 676 -378 759 -762 22 -103 22 -301 0 -404 -84 -386 -378 -680 -764
-764 -103 -22 -301 -22 -404 0 -386 84 -680 378 -764 764 -22 103 -22 301 0
404 63 290 244 530 506 671 106 57 205 87 375 111 51 7 215 -4 292 -20z"/>
</g>
</svg>
