<?xml version="1.0" standalone="no"?>
<!DOCTYPE svg PUBLIC "-//W3C//DTD SVG 20010904//EN"
 "http://www.w3.org/TR/2001/REC-SVG-20010904/DTD/svg10.dtd">
<svg version="1.0" xmlns="http://www.w3.org/2000/svg"
 width="512.000000pt" height="512.000000pt" viewBox="0 0 512.000000 512.000000"
 preserveAspectRatio="xMidYMid meet">

<g transform="translate(0.000000,512.000000) scale(0.100000,-0.100000)"
fill="#000000" stroke="none">
<path d="M2420 3955 c-82 -18 -149 -48 -226 -100 -106 -73 -2000 -1622 -2043
-1672 -23 -26 -60 -84 -82 -128 -91 -184 -91 -372 1 -564 104 -216 356 -365
590 -347 41 3 99 11 128 17 129 30 175 64 988 727 689 562 778 631 793 619 70
-59 1480 -1204 1528 -1241 129 -98 271 -142 428 -133 260 15 480 185 562 432
36 110 39 276 6 380 -32 101 -88 190 -168 268 -95 91 -1979 1623 -2048 1665
-129 78 -315 109 -457 77z"/>
</g>
</svg>
