<?xml version="1.0" standalone="no"?>
<!DOCTYPE svg PUBLIC "-//W3C//DTD SVG 20010904//EN"
 "http://www.w3.org/TR/2001/REC-SVG-20010904/DTD/svg10.dtd">
<svg version="1.0" xmlns="http://www.w3.org/2000/svg"
 width="512.000000pt" height="512.000000pt" viewBox="0 0 512.000000 512.000000"
 preserveAspectRatio="xMidYMid meet">

<g transform="translate(0.000000,512.000000) scale(0.100000,-0.100000)"
fill="#000000" stroke="none">
<path d="M2395 5105 c-714 -72 -1204 -434 -1351 -999 -48 -185 -59 -478 -25
-666 36 -202 116 -387 235 -545 l45 -60 -535 -3 -534 -2 0 -270 0 -270 903 0
902 0 340 -169 c389 -194 497 -260 612 -376 131 -130 179 -264 154 -429 -39
-265 -231 -405 -596 -437 -383 -33 -880 86 -1522 364 l-83 36 0 -490 0 -490
73 -33 c563 -257 1335 -335 1977 -200 219 47 485 161 650 281 100 72 241 212
306 303 62 87 147 265 178 373 44 155 59 291 53 487 -5 137 -11 198 -31 280
-40 170 -94 298 -180 423 -25 37 -46 69 -46 72 0 3 218 5 485 5 l485 0 0 270
0 270 -851 0 -850 0 -397 200 c-429 216 -519 269 -615 364 -105 103 -147 202
-147 346 0 233 136 404 373 471 72 20 105 23 267 23 108 1 216 -5 260 -12 239
-42 398 -87 680 -193 102 -39 191 -71 198 -72 8 -1 74 144 177 393 91 217 166
401 167 408 6 28 -461 199 -722 266 -341 87 -696 115 -1035 81z"/>
</g>
</svg>
