<?xml version="1.0" standalone="no"?>
<!DOCTYPE svg PUBLIC "-//W3C//DTD SVG 20010904//EN"
 "http://www.w3.org/TR/2001/REC-SVG-20010904/DTD/svg10.dtd">
<svg version="1.0" xmlns="http://www.w3.org/2000/svg"
 width="512.000000pt" height="512.000000pt" viewBox="0 0 512.000000 512.000000"
 preserveAspectRatio="xMidYMid meet">

<g transform="translate(0.000000,512.000000) scale(0.100000,-0.100000)"
fill="#000000" stroke="none">
<path d="M910 3818 c0 -1293 4 -1472 35 -1624 98 -481 418 -825 930 -999 375
-128 921 -136 1320 -20 479 140 826 465 950 890 60 207 58 144 62 1663 l4
1392 -470 0 -471 0 -2 -1397 -3 -1398 -22 -76 c-32 -114 -77 -195 -147 -265
-145 -145 -413 -212 -683 -170 -293 45 -462 187 -539 456 -18 62 -19 135 -22
1458 l-2 1392 -470 0 -470 0 0 -1302z"/>
<path d="M0 365 l0 -365 2560 0 2560 0 0 365 0 365 -2560 0 -2560 0 0 -365z"/>
</g>
</svg>
