<?xml version="1.0" standalone="no"?>
<!DOCTYPE svg PUBLIC "-//W3C//DTD SVG 20010904//EN"
 "http://www.w3.org/TR/2001/REC-SVG-20010904/DTD/svg10.dtd">
<svg version="1.0" xmlns="http://www.w3.org/2000/svg"
 width="512.000000pt" height="512.000000pt" viewBox="0 0 512.000000 512.000000"
 preserveAspectRatio="xMidYMid meet">

<g transform="translate(0.000000,512.000000) scale(0.100000,-0.100000)"
fill="#000000" stroke="none">
<path d="M2481 5109 c-18 -6 -50 -21 -70 -34 -20 -13 -464 -452 -987 -977
-1050 -1052 -990 -984 -988 -1113 1 -95 28 -140 156 -270 134 -135 186 -165
288 -165 126 0 113 -11 727 603 l553 552 2 -1750 3 -1750 25 -49 c34 -66 100
-123 167 -142 42 -12 91 -15 221 -12 144 3 173 6 213 24 58 27 116 84 143 143
l21 46 3 1750 2 1750 568 -567 c637 -635 599 -605 737 -596 67 4 82 9 130 43
78 53 243 229 268 284 29 64 28 160 -1 226 -19 43 -177 205 -985 1011 -666
665 -974 966 -1001 979 -47 21 -148 28 -195 14z"/>
</g>
</svg>
