<?xml version="1.0" standalone="no"?>
<!DOCTYPE svg PUBLIC "-//W3C//DTD SVG 20010904//EN"
 "http://www.w3.org/TR/2001/REC-SVG-20010904/DTD/svg10.dtd">
<svg version="1.0" xmlns="http://www.w3.org/2000/svg"
 width="512.000000pt" height="512.000000pt" viewBox="0 0 512.000000 512.000000"
 preserveAspectRatio="xMidYMid meet">

<g transform="translate(0.000000,512.000000) scale(0.100000,-0.100000)"
fill="#000000" stroke="none">
<path d="M1215 3186 c-16 -8 -150 -135 -297 -282 -288 -290 -289 -293 -273
-382 5 -32 44 -75 283 -314 299 -299 301 -300 389 -283 49 9 109 69 118 118
15 79 2 103 -128 234 l-120 123 556 2 c543 3 556 3 583 24 53 39 69 71 69 134
0 63 -16 95 -69 134 -27 21 -40 21 -583 24 l-556 2 120 123 c98 99 123 129
128 160 25 132 -101 237 -220 183z"/>
<path d="M3775 3186 c-41 -18 -83 -69 -91 -111 -14 -77 0 -102 129 -232 l120
-123 -556 -2 c-543 -3 -556 -3 -583 -24 -53 -39 -69 -71 -69 -134 0 -63 16
-95 69 -134 27 -21 40 -21 583 -24 l556 -2 -120 -123 c-130 -131 -143 -155
-128 -234 9 -49 69 -109 118 -118 88 -17 90 -16 389 283 239 239 278 282 283
315 16 88 15 91 -273 381 -147 147 -281 274 -299 282 -40 17 -89 17 -128 0z"/>
</g>
</svg>
