<?xml version="1.0" standalone="no"?>
<!DOCTYPE svg PUBLIC "-//W3C//DTD SVG 20010904//EN"
 "http://www.w3.org/TR/2001/REC-SVG-20010904/DTD/svg10.dtd">
<svg version="1.0" xmlns="http://www.w3.org/2000/svg"
 width="512.000000pt" height="512.000000pt" viewBox="0 0 512.000000 512.000000"
 preserveAspectRatio="xMidYMid meet">

<g transform="translate(0.000000,512.000000) scale(0.100000,-0.100000)"
fill="#000000" stroke="none">
<path d="M430 2560 l0 -1710 210 0 210 0 2 748 3 747 745 0 745 0 3 -747 2
-748 210 0 210 0 0 1710 0 1710 -210 0 -210 0 -2 -747 -3 -748 -745 0 -745 0
-3 748 -2 747 -210 0 -210 0 0 -1710z"/>
<path d="M3885 3340 l-250 -67 -3 -222 c-2 -209 -1 -222 15 -217 43 12 394
106 398 106 3 0 6 -469 7 -1042 l3 -1043 213 -3 212 -2 0 1280 0 1280 -172 -1
-173 -1 -250 -68z"/>
</g>
</svg>
