<?xml version="1.0" standalone="no"?>
<!DOCTYPE svg PUBLIC "-//W3C//DTD SVG 20010904//EN"
 "http://www.w3.org/TR/2001/REC-SVG-20010904/DTD/svg10.dtd">
<svg version="1.0" xmlns="http://www.w3.org/2000/svg"
 width="512.000000pt" height="512.000000pt" viewBox="0 0 512.000000 512.000000"
 preserveAspectRatio="xMidYMid meet">

<g transform="translate(0.000000,512.000000) scale(0.100000,-0.100000)"
fill="#000000" stroke="none">
<path d="M430 2560 l0 -1710 210 0 210 0 2 748 3 747 745 0 745 0 3 -747 2
-748 210 0 210 0 0 1710 0 1710 -210 0 -210 0 -2 -747 -3 -748 -745 0 -745 0
-3 748 -2 747 -210 0 -210 0 0 -1710z"/>
<path d="M3758 3390 c-295 -75 -518 -299 -588 -593 -11 -45 -20 -106 -20 -134
l0 -53 209 0 209 0 10 60 c52 294 400 417 617 219 36 -33 66 -74 87 -117 30
-60 33 -75 33 -157 0 -151 12 -134 -589 -825 l-526 -605 0 -167 0 -168 745 0
745 0 0 215 0 215 -419 2 -419 3 363 418 c200 230 381 444 401 475 46 69 89
168 110 258 22 91 22 267 1 356 -68 283 -271 498 -552 588 -102 32 -309 38
-417 10z"/>
</g>
</svg>
