<?xml version="1.0" standalone="no"?>
<!DOCTYPE svg PUBLIC "-//W3C//DTD SVG 20010904//EN"
 "http://www.w3.org/TR/2001/REC-SVG-20010904/DTD/svg10.dtd">
<svg version="1.0" xmlns="http://www.w3.org/2000/svg"
 width="512.000000pt" height="512.000000pt" viewBox="0 0 512.000000 512.000000"
 preserveAspectRatio="xMidYMid meet">

<g transform="translate(0.000000,512.000000) scale(0.100000,-0.100000)"
fill="#000000" stroke="none">
<path d="M430 2560 l0 -1710 210 0 210 0 2 748 3 747 745 0 745 0 3 -747 2
-748 210 0 210 0 0 1710 0 1710 -210 0 -210 0 -2 -747 -3 -748 -745 0 -745 0
-3 748 -2 747 -210 0 -210 0 0 -1710z"/>
<path d="M3406 3378 c-108 -611 -226 -1290 -226 -1305 0 -15 42 -40 190 -113
l189 -93 51 47 c165 155 419 148 583 -15 168 -168 168 -430 0 -598 -133 -133
-318 -163 -489 -80 -78 37 -174 136 -200 206 -9 26 -19 50 -20 51 -1 2 -93
-22 -204 -54 l-202 -57 6 -31 c10 -53 84 -191 141 -264 77 -98 172 -175 290
-232 131 -64 195 -80 341 -87 194 -9 349 33 507 137 77 51 177 146 230 221 47
66 103 191 128 284 30 112 30 298 0 410 -103 388 -434 645 -830 645 -55 0
-123 -5 -151 -11 -27 -6 -54 -9 -58 -7 -7 3 10 113 73 466 l17 92 459 0 459 0
0 210 0 210 -639 0 -639 0 -6 -32z"/>
</g>
</svg>
