<?xml version="1.0" standalone="no"?>
<!DOCTYPE svg PUBLIC "-//W3C//DTD SVG 20010904//EN"
 "http://www.w3.org/TR/2001/REC-SVG-20010904/DTD/svg10.dtd">
<svg version="1.0" xmlns="http://www.w3.org/2000/svg"
 width="512.000000pt" height="512.000000pt" viewBox="0 0 512.000000 512.000000"
 preserveAspectRatio="xMidYMid meet">

<g transform="translate(0.000000,512.000000) scale(0.100000,-0.100000)"
fill="#000000" stroke="none">
<path d="M430 2560 l0 -1710 210 0 210 0 2 748 3 747 745 0 745 0 3 -747 2
-748 210 0 210 0 0 1710 0 1710 -210 0 -210 0 -2 -747 -3 -748 -745 0 -745 0
-3 748 -2 747 -210 0 -210 0 0 -1710z"/>
<path d="M4153 3398 c-6 -7 -247 -424 -537 -925 l-526 -913 0 -140 0 -140 590
0 590 0 0 -215 0 -215 210 0 210 0 0 215 0 215 160 0 160 0 0 215 0 215 -160
0 -160 0 0 850 0 850 -264 0 c-199 0 -266 -3 -273 -12z m114 -1685 c-2 -2
-137 -2 -299 -1 l-296 3 297 514 296 513 3 -513 c1 -281 1 -514 -1 -516z"/>
</g>
</svg>
