<?xml version="1.0" standalone="no"?>
<!DOCTYPE svg PUBLIC "-//W3C//DTD SVG 20010904//EN"
 "http://www.w3.org/TR/2001/REC-SVG-20010904/DTD/svg10.dtd">
<svg version="1.0" xmlns="http://www.w3.org/2000/svg"
 width="512.000000pt" height="512.000000pt" viewBox="0 0 512.000000 512.000000"
 preserveAspectRatio="xMidYMid meet">

<g transform="translate(0.000000,512.000000) scale(0.100000,-0.100000)"
fill="#000000" stroke="none">
<path d="M430 2560 l0 -1710 210 0 210 0 2 748 3 747 745 0 745 0 3 -747 2
-748 210 0 210 0 0 1710 0 1710 -210 0 -210 0 -2 -747 -3 -748 -745 0 -745 0
-3 748 -2 747 -210 0 -210 0 0 -1710z"/>
<path d="M3595 2698 c-225 -391 -420 -736 -433 -766 -47 -111 -64 -199 -64
-332 0 -145 20 -237 79 -364 46 -98 85 -153 166 -234 119 -121 271 -204 436
-237 111 -23 294 -16 399 14 589 170 813 877 429 1359 -143 181 -401 312 -613
312 -24 0 -44 2 -44 5 0 5 506 885 536 933 l14 22 -247 0 -248 0 -410 -712z
m436 -682 c87 -19 141 -47 206 -108 90 -86 133 -185 133 -308 0 -124 -43 -222
-135 -309 -129 -122 -312 -150 -474 -74 -73 35 -165 127 -197 198 -78 170 -46
355 83 484 64 63 129 99 213 117 73 16 93 16 171 0z"/>
</g>
</svg>
